<svg xmlns="http://www.w3.org/2000/svg" viewBox="0 0 96.13 15.11"><defs><style>.cls-1{fill:#717f62;}</style></defs><title>starts</title><g id="Capa_2" data-name="Capa 2"><g id="Capa_1-2" data-name="Capa 1"><path class="cls-1" d="M12.66,15.1a.43.43,0,0,0,.45-.43.34.34,0,0,0,0-.1l-1-5L15.85,6.2a.44.44,0,0,0-.25-.76l-5.08-.57L8.41.26a.46.46,0,0,0-.82,0L5.48,4.87.4,5.44a.44.44,0,0,0-.4.48.43.43,0,0,0,.15.28L3.92,9.61l-1,5a.45.45,0,0,0,.34.53.47.47,0,0,0,.31,0L8,12.55l4.45,2.5a.5.5,0,0,0,.21,0Z"/><path class="cls-1" d="M11.15,9.55,12,13.8,8.22,11.66a.43.43,0,0,0-.44,0L4,13.8l.88-4.25a.44.44,0,0,0-.13-.41L1.48,6.21l4.36-.48a.45.45,0,0,0,.35-.26L8,1.52l1.81,4a.47.47,0,0,0,.36.26l4.36.48L11.29,9.14A.43.43,0,0,0,11.15,9.55Z"/><path class="cls-1" d="M32.69,15.1a.45.45,0,0,0,.46-.43s0-.07,0-.1l-1-5L35.89,6.2a.44.44,0,0,0,0-.62.47.47,0,0,0-.28-.14l-5.09-.57L28.44.26A.45.45,0,0,0,27.85,0a.45.45,0,0,0-.23.22L25.51,4.87l-5.08.57a.43.43,0,0,0-.39.48.42.42,0,0,0,.14.28L24,9.61l-1,5a.45.45,0,0,0,.35.53.49.49,0,0,0,.31,0L28,12.55l4.45,2.5a.54.54,0,0,0,.21,0Z"/><path class="cls-1" d="M31.18,9.55l.89,4.25-3.81-2.14a.45.45,0,0,0-.45,0L24,13.8l.89-4.25a.43.43,0,0,0-.14-.41L21.51,6.21l4.36-.48a.45.45,0,0,0,.35-.26L28,1.52l1.81,4a.45.45,0,0,0,.35.26l4.36.48L31.32,9.14A.45.45,0,0,0,31.18,9.55Z"/><path class="cls-1" d="M52.73,15.1a.44.44,0,0,0,.45-.43.34.34,0,0,0,0-.1l-1-5L55.92,6.2a.43.43,0,0,0,0-.62.42.42,0,0,0-.28-.14l-5.08-.57L48.47.26A.45.45,0,0,0,47.88,0a.4.4,0,0,0-.22.22L45.55,4.87l-5.09.57a.43.43,0,0,0-.39.48.42.42,0,0,0,.14.28L44,9.61l-1,5a.45.45,0,0,0,.35.53.49.49,0,0,0,.31,0l4.45-2.5,4.44,2.5a.54.54,0,0,0,.22,0Z"/><path class="cls-1" d="M51.22,9.55l.88,4.25-3.81-2.14a.43.43,0,0,0-.44,0L44,13.8l.88-4.25a.43.43,0,0,0-.14-.41L41.54,6.21l4.36-.48a.47.47,0,0,0,.36-.26l1.81-3.95,1.81,4a.45.45,0,0,0,.36.26l4.35.48L51.36,9.14A.43.43,0,0,0,51.22,9.55Z"/><path class="cls-1" d="M72.76,15.1a.43.43,0,0,0,.45-.43.34.34,0,0,0,0-.1l-1-5L76,6.2a.44.44,0,0,0-.25-.76l-5.08-.57L68.51.26a.46.46,0,0,0-.82,0L65.58,4.87l-5.08.57a.43.43,0,0,0-.4.48.39.39,0,0,0,.15.28L64,9.61l-1,5a.45.45,0,0,0,.35.53.47.47,0,0,0,.31,0l4.45-2.5,4.45,2.5a.46.46,0,0,0,.21,0Z"/><path class="cls-1" d="M71.25,9.55l.88,4.25-3.81-2.14a.43.43,0,0,0-.44,0L64.07,13.8,65,9.55a.43.43,0,0,0-.14-.41L61.58,6.21l4.35-.48a.47.47,0,0,0,.36-.26L68.1,1.52l1.81,4a.47.47,0,0,0,.36.26l4.36.48L71.39,9.14A.43.43,0,0,0,71.25,9.55Z"/><path class="cls-1" d="M92.79,15.1a.45.45,0,0,0,.46-.43s0-.07,0-.1l-1-5L96,6.2a.44.44,0,0,0,0-.62.47.47,0,0,0-.29-.14l-5.08-.57L88.54.26A.45.45,0,0,0,88,0a.45.45,0,0,0-.23.22L85.61,4.87l-5.08.57a.44.44,0,0,0-.4.48.48.48,0,0,0,.15.28l3.78,3.41-1,5a.45.45,0,0,0,.34.53.47.47,0,0,0,.31,0l4.45-2.5,4.45,2.5a.5.5,0,0,0,.21,0Z"/><path class="cls-1" d="M91.28,9.55l.89,4.25-3.82-2.14a.43.43,0,0,0-.44,0L84.1,13.8,85,9.55a.45.45,0,0,0-.14-.41L81.61,6.21,86,5.73a.45.45,0,0,0,.35-.26l1.81-3.95,1.82,4a.45.45,0,0,0,.35.26l4.36.48L91.42,9.14A.43.43,0,0,0,91.28,9.55Z"/></g></g></svg>